<svg height="479.88458pt" viewBox="0 0 479.88458 479.88458" width="479.88458pt" xmlns="http://www.w3.org/2000/svg" xmlns:xlink="http://www.w3.org/1999/xlink"><linearGradient id="a" gradientUnits="userSpaceOnUse" x1="17.830292" x2="473.830292" y1="458.150292" y2="10.150292"><stop offset="0" stop-color="#fff200"/><stop offset="1" stop-color="#cd118c"/></linearGradient><path d="m477.542969 24.980469-22.640625-22.636719c-3.125-3.125-8.1875-3.125-11.3125 0l-141.421875 141.429688-16.96875-16.96875c-3.125-3.121094-8.1875-3.121094-11.3125 0l-16.976563 16.96875c-1.503906 1.5-2.347656 3.539062-2.347656 5.660156 0 2.125.84375 4.160156 2.347656 5.660156l5.65625 5.65625-101.824218 101.816406-5.65625-5.65625c-3.175782-2.996094-8.140626-2.996094-11.320313 0l-16.96875 16.976563c-3.121094 3.125-3.121094 8.1875 0 11.3125l16.96875 16.96875-141.421875 141.421875c-3.125 3.125-3.125 8.1875 0 11.3125l22.636719 22.640625c3.125 3.121093 8.191406 3.121093 11.3125 0l141.425781-141.433594 16.96875 16.96875c3.121094 3.125 8.1875 3.125 11.3125 0l16.972656-16.96875c1.503906-1.5 2.347656-3.535156 2.347656-5.660156 0-2.121094-.84375-4.160157-2.347656-5.660157l-5.65625-5.65625 101.824219-101.816406 5.65625 5.65625c1.503906 1.503906 3.539063 2.347656 5.660156 2.347656 2.125 0 4.160157-.84375 5.660157-2.347656l16.96875-16.972656c3.125-3.125 3.125-8.191406 0-11.3125l-16.96875-16.96875 141.425781-141.425781c3.121093-3.121094 3.121093-8.1875 0-11.3125zm-172.578125 178.160156-47.621094 19.402344 19.398438-47.625zm-76.796875 48.546875-22.625 55.65625-33-33zm-28.136719-5.808594 51.472656-51.472656-14.867187 36.574219zm48.800781-2.632812 36.574219-14.894532-51.472656 51.472657zm-218.195312 217.3125-11.308594-11.3125 135.765625-135.769532 11.3125 11.3125zm169.707031-124.449219-56.570312-56.566406 5.664062-5.664063 56.570312 56.566406zm130.101562-130.101563-56.566406-56.570312 5.664063-5.664062 56.566406 56.570312zm-5.65625-39.601562-11.3125-11.3125 135.769532-135.765625 11.3125 11.308594zm0 0" fill="url(#a)"/></svg>